# File created by Blade
# Date/Time:  Wed Jan 21 17:21:31 2015
# Frame Rate: 120.000 fps
#------------------------------------------------------
:FULLY-SPECIFIED
:DEGREES
1358
root 24.266132 35.717010 -20.176440 -183.290508 -3.026679 -180.481170
Spine -1.076871 3.417370 -4.015591
Head 2.448437 -3.546386 1.545368
LeftShoulder -2.788344 -24.159203 -2.616773
LeftArm 3.355687 34.916431 -45.790268
LeftForeArm 21.116036 -0.000000 5.968114
LeftHand 0.562532 -0.000000 -9.792857
LeftHandThumb1 -26.253704 0.000000 33.147579
RightShoulder -5.816751 -13.336702 4.908424
RightArm 23.876528 -12.826868 41.532804
RightForeArm -32.801189 -0.000000 12.316309
RightHand 0.518845 -0.000000 9.430337
RightHandThumb1 -24.326973 -0.000000 -32.862282
LeftUpLeg 0.985882 11.542137 9.192004
LeftLeg 8.543737 -0.000000 -0.000000
LeftFoot -22.296981 24.001414 -11.328203
LeftToeBase 18.783697 -0.000000 -0.000000
RightUpLeg 8.232745 -11.608475 1.091951
RightLeg -2.052445 -0.000000 0.000000
RightFoot -20.746427 -27.516973 13.148740
RightToeBase 25.188585 -0.000000 -0.000000
1359
root 24.282017 35.712341 -20.193990 -183.082256 -2.972245 -180.435163
Spine -1.525113 3.448032 -4.027303
Head 2.542616 -3.514370 1.647716
LeftShoulder -2.874001 -24.301702 -2.122826
LeftArm 3.335333 33.990786 -44.024793
LeftForeArm 20.494971 -0.000000 5.566646
LeftHand 0.446661 0.000000 -9.552178
LeftHandThumb1 -26.253704 0.000000 33.147579
RightShoulder -5.951566 -13.230527 4.670703
RightArm 22.918545 -11.172189 40.924401
RightForeArm -32.087734 -0.000000 11.520927
RightHand 0.239440 -0.000000 9.201695
RightHandThumb1 -24.326973 -0.000000 -32.862282
LeftUpLeg 0.976630 11.725805 9.403467
LeftLeg 8.205586 -0.000000 -0.000000
LeftFoot -21.752897 24.111774 -11.263757
LeftToeBase 18.951462 -0.000000 -0.000000
RightUpLeg 8.003623 -11.616211 1.195148
RightLeg -1.974428 -0.000000 0.000000
RightFoot -20.804347 -27.460430 13.151104
RightToeBase 25.398982 -0.000000 -0.000000
1360
root 24.294278 35.707691 -20.209460 -182.846359 -2.938076 -180.360472
Spine -2.001714 3.419935 -3.987000
Head 2.700089 -3.429752 1.696610
LeftShoulder -2.992693 -24.491919 -1.623282
LeftArm 3.248434 33.035372 -42.313810
LeftForeArm 19.791491 -0.000000 5.235291
LeftHand 0.193727 -0.000000 -9.545512
LeftHandThumb1 -26.253704 0.000000 33.147579
RightShoulder -6.090771 -13.054568 4.384792
RightArm 21.949938 -9.482388 40.322315
RightForeArm -31.657948 0.000000 10.849264
RightHand -0.043619 -0.000000 8.868811
RightHandThumb1 -24.326973 -0.000000 -32.862282
LeftUpLeg 0.947738 11.793570 9.616460
LeftLeg 7.859729 -0.000000 -0.000000
LeftFoot -21.124205 24.187726 -11.084226
LeftToeBase 19.078153 -0.000000 -0.000000
RightUpLeg 7.747905 -11.602172 1.331934
RightLeg -1.905586 -0.000000 0.000000
RightFoot -20.873399 -27.407233 13.221613
RightToeBase 25.385219 -0.000000 -0.000000
1361
root 24.301160 35.704642 -20.233918 -182.650879 -2.915495 -180.280370
Spine -2.452976 3.363584 -3.935273
Head 2.876983 -3.403578 1.722632
LeftShoulder -3.108104 -24.706947 -1.126986
LeftArm 3.138791 32.166456 -40.615145
LeftForeArm 19.164034 -0.000000 4.876244
LeftHand 0.052266 -0.000000 -9.324587
LeftHandThumb1 -26.253704 0.000000 33.147579
RightShoulder -6.265804 -13.001817 4.129523
RightArm 21.112855 -7.618210 39.618738
RightForeArm -31.125649 0.000000 10.254321
RightHand -0.305493 0.000000 8.845131
RightHandThumb1 -24.326973 -0.000000 -32.862282
LeftUpLeg 0.999155 11.628676 9.812555
LeftLeg 7.482606 -0.000000 -0.000000
LeftFoot -20.490497 24.367778 -11.016193
LeftToeBase 19.194855 -0.000000 -0.000000
RightUpLeg 7.573739 -11.625422 1.451541
RightLeg -1.879892 -0.000000 0.000000
RightFoot -20.918270 -27.317142 13.309115
RightToeBase 25.419397 -0.000000 -0.000000
1362
root 24.300330 35.700894 -20.255666 -182.435275 -2.851587 -180.231309
Spine -2.918240 3.325858 -3.906982
Head 3.019748 -3.319396 1.777601
LeftShoulder -3.241164 -24.854102 -0.615688
LeftArm 3.090202 31.158520 -38.920985
LeftForeArm 18.639540 -0.000000 4.508822
LeftHand -0.028382 -0.000000 -9.094084
LeftHandThumb1 -26.253704 0.000000 33.147579
RightShoulder -6.395354 -12.882020 3.808985
RightArm 20.218079 -5.832362 38.915345
RightForeArm -30.570434 -0.000000 9.771763
RightHand -0.477739 -0.000000 8.623314
RightHandThumb1 -24.326973 -0.000000 -32.862282
LeftUpLeg 1.052752 11.536385 9.964569
LeftLeg 7.100459 -0.000000 -0.000000
LeftFoot -19.722864 24.339209 -10.881067
LeftToeBase 19.312639 -0.000000 -0.000000
RightUpLeg 7.369300 -11.620386 1.531211
RightLeg -1.847050 -0.000000 0.000000
RightFoot -20.950126 -27.240635 13.323806
RightToeBase 25.445696 -0.000000 -0.000000
1363
root 24.297905 35.696229 -20.282508 -182.270162 -2.787834 -180.159858
Spine -3.318350 3.288669 -3.845643
Head 3.145621 -3.228148 1.837563
LeftShoulder -3.371145 -25.108361 -0.055764
LeftArm 2.975311 29.892310 -37.354241
LeftForeArm 18.211440 -0.000000 4.075199
LeftHand -0.167228 -0.000000 -9.081486
LeftHandThumb1 -26.253704 0.000000 33.147579
RightShoulder -6.581836 -12.760288 3.482183
RightArm 19.439004 -4.080822 38.152363
RightForeArm -30.218195 -0.000000 9.275171
RightHand -0.719974 0.000000 8.452007
RightHandThumb1 -24.326973 -0.000000 -32.862282
LeftUpLeg 1.130008 11.348794 10.134967
LeftLeg 6.803822 -0.000000 -0.000000
LeftFoot -19.143092 24.327630 -10.954619
LeftToeBase 19.795059 -0.000000 -0.000000
RightUpLeg 7.241280 -11.621964 1.619977
RightLeg -1.844955 -0.000000 0.000000
RightFoot -20.989329 -27.122637 13.383903
RightToeBase 25.466669 -0.000000 -0.000000
1364
root 24.288547 35.691981 -20.306007 -182.056781 -2.725752 -180.094346
Spine -3.778930 3.222894 -3.779021
Head 3.332688 -3.130186 1.890675
LeftShoulder -3.504157 -25.382116 0.483297
LeftArm 2.795017 29.000877 -35.751178
LeftForeArm 17.507965 -0.000000 3.822297
LeftHand -0.337732 -0.000000 -8.991265
LeftHandThumb1 -26.253704 0.000000 33.147579
RightShoulder -6.736282 -12.605229 3.117692
RightArm 18.630547 -2.343459 37.362114
RightForeArm -29.827871 0.000000 8.907302
RightHand -0.928514 -0.000000 8.341474
RightHandThumb1 -24.326973 -0.000000 -32.862282
LeftUpLeg 1.212957 10.987586 10.261284
LeftLeg 6.422321 -0.000000 -0.000000
LeftFoot -18.493999 24.367845 -10.968933
LeftToeBase 20.067956 -0.000000 -0.000000
RightUpLeg 7.064408 -11.609864 1.705488
RightLeg -1.855425 -0.000000 0.000000
RightFoot -21.012886 -27.053198 13.450903
RightToeBase 25.440606 -0.000000 -0.000000
1365
root 24.269833 35.686323 -20.327493 -181.842249 -2.594902 -180.068675
Spine -4.227341 3.223636 -3.739897
Head 3.513328 -3.068927 1.905599
LeftShoulder -3.633681 -25.662988 1.040283
LeftArm 2.607764 27.957145 -34.214285
LeftForeArm 17.058879 -0.000000 3.527397
LeftHand -0.378080 0.000000 -8.773833
LeftHandThumb1 -26.253704 0.000000 33.147579
RightShoulder -6.889479 -12.484393 2.726639
RightArm 17.877623 -0.701867 36.512063
RightForeArm -29.478340 -0.000000 8.632553
RightHand -1.094493 -0.000000 8.271783
RightHandThumb1 -24.326973 -0.000000 -32.862282
LeftUpLeg 1.364353 10.569179 10.321051
LeftLeg 5.953695 -0.000000 -0.000000
LeftFoot -17.996965 24.426122 -11.159421
LeftToeBase 20.658602 -0.000000 -0.000000
RightUpLeg 6.871616 -11.483288 1.745296
RightLeg -1.851565 -0.000000 0.000000
RightFoot -21.051752 -27.020214 13.423873
RightToeBase 25.338962 -0.000000 -0.000000
1366
root 24.247358 35.680469 -20.351997 -181.620715 -2.522531 -180.012638
Spine -4.685429 3.142719 -3.661336
Head 3.665400 -3.002403 1.928495
LeftShoulder -3.813951 -25.894681 1.622649
LeftArm 2.460260 26.800666 -32.694157
LeftForeArm 16.677327 0.000000 3.331533
LeftHand -0.621681 -0.000000 -8.655224
LeftHandThumb1 -26.253704 0.000000 33.147579
RightShoulder -7.045584 -12.305507 2.298822
RightArm 17.112720 0.989056 35.685456
RightForeArm -29.161918 -0.000000 8.446777
RightHand -1.325246 -0.000000 8.295044
RightHandThumb1 -24.326973 -0.000000 -32.862282
LeftUpLeg 1.456484 10.165528 10.394270
LeftLeg 5.572750 -0.000000 -0.000000
LeftFoot -17.478619 24.332833 -11.328241
LeftToeBase 21.095939 -0.000000 -0.000000
RightUpLeg 6.706970 -11.449526 1.802712
RightLeg -1.899436 -0.000000 0.000000
RightFoot -21.045134 -27.032413 13.358918
RightToeBase 25.606528 -0.000000 -0.000000
1367
root 24.223962 35.675263 -20.382789 -181.438853 -2.470080 -179.958004
Spine -5.102374 3.044925 -3.582694
Head 3.820384 -2.930908 1.914926
LeftShoulder -3.995864 -26.133227 2.217499
LeftArm 2.313540 25.563599 -31.212637
LeftForeArm 16.201347 -0.000000 3.093789
LeftHand -0.762461 -0.000000 -8.440010
LeftHandThumb1 -26.253704 0.000000 33.147579
RightShoulder -7.187488 -11.987540 1.842226
RightArm 16.246933 2.525704 34.840434
RightForeArm -29.094960 0.000000 8.402138
RightHand -1.508303 -0.000000 8.061953
RightHandThumb1 -24.326973 -0.000000 -32.862282
LeftUpLeg 1.582601 9.693198 10.452019
LeftLeg 5.230928 -0.000000 -0.000000
LeftFoot -16.900605 24.228223 -11.463512
LeftToeBase 21.544685 -0.000000 -0.000000
RightUpLeg 6.611950 -11.473831 1.846985
RightLeg -1.988021 -0.000000 0.000000
RightFoot -21.011090 -26.954497 13.425229
RightToeBase 25.513061 -0.000000 -0.000000
1368
root 24.195566 35.669978 -20.411971 -181.257416 -2.302020 -179.868118
Spine -5.507717 3.030959 -3.439665
Head 3.919083 -2.864083 1.913425
LeftShoulder -4.244796 -26.394352 2.840432
LeftArm 2.201279 24.258997 -29.795830
LeftForeArm 15.684628 0.000000 2.809400
LeftHand -0.904643 -0.000000 -8.124725
LeftHandThumb1 -26.253704 0.000000 33.147579
RightShoulder -7.276331 -11.814771 1.382229
RightArm 15.506153 4.002540 33.894698
RightForeArm -28.770060 -0.000000 8.286837
RightHand -1.602260 -0.000000 7.907663
RightHandThumb1 -24.326973 -0.000000 -32.862282
LeftUpLeg 1.730161 9.337904 10.543430
LeftLeg 4.935585 -0.000000 -0.000000
LeftFoot -16.233219 24.002305 -11.587832
LeftToeBase 21.919525 -0.000000 -0.000000
RightUpLeg 6.487732 -11.347789 1.925077
RightLeg -2.039932 -0.000000 0.000000
RightFoot -21.005069 -26.946921 13.415127
RightToeBase 25.640099 -0.000000 -0.000000
